<svg width="450" height="556" viewBox="0 0 450 556" fill="none" xmlns="http://www.w3.org/2000/svg">
<path d="M403.097 -40V42.9382C403.097 49.2022 398.013 54.2802 391.742 54.2802H311.548C305.277 54.2802 300.194 59.3581 300.194 65.6221V145.725C300.194 151.989 295.11 157.067 288.839 157.067H208.645C202.374 157.067 197.29 162.145 197.29 168.409V248.511C197.29 254.775 192.207 259.853 185.935 259.853H105.742C99.4708 259.853 94.3871 264.931 94.3871 271.195V351.298C94.3871 357.562 89.3034 362.64 83.0323 362.64H1.508e-05M506 -40V42.9382C506 49.2022 500.916 54.2802 494.645 54.2802H414.452C408.181 54.2802 403.097 59.3581 403.097 65.6221V145.725C403.097 151.989 398.013 157.067 391.742 157.067H311.548C305.277 157.067 300.194 162.145 300.194 168.409V248.511C300.194 254.775 305.277 259.853 311.548 259.853H391.742C398.013 259.853 403.097 254.775 403.097 248.511V166.991L403.196 166.321C403.958 161.184 408.324 157.348 413.522 157.248L422.968 157.067H494.645C500.916 157.067 506 162.145 506 168.409V248.511C506 254.775 500.916 259.853 494.645 259.853H413.742L411.046 260.033C406.573 260.331 403.097 264.042 403.097 268.521V277.221M403.097 268.36V351.298C403.097 357.562 398.013 362.64 391.742 362.64H311.548C305.277 362.64 300.194 367.718 300.194 373.982V454.085C300.194 460.349 295.11 465.427 288.839 465.427H208.645C202.374 465.427 197.29 470.505 197.29 476.769V556.871C197.29 563.135 192.207 568.213 185.935 568.213H105.742C99.4708 568.213 94.3871 573.291 94.3871 579.555V659.658C94.3871 665.922 89.3034 671 83.0323 671H1.508e-05" stroke="url(#paint0_linear_3133_7114)" stroke-width="1.27532"/>
<defs>
<linearGradient id="paint0_linear_3133_7114" x1="506" y1="-40" x2="12.0331" y2="571.951" gradientUnits="userSpaceOnUse">
<stop stop-color="#181B20"/>
<stop offset="1" stop-color="#2A2E38"/>
</linearGradient>
</defs>
</svg>
