<svg width="227" height="556" viewBox="0 0 227 556" fill="none" xmlns="http://www.w3.org/2000/svg">
<path opacity="0.5" d="M123.097 687V604.062C123.097 597.798 118.013 592.72 111.742 592.72H31.5484C25.2773 592.72 20.1936 587.642 20.1936 581.378V501.275C20.1936 495.011 15.1098 489.933 8.83872 489.933H-71.3548C-77.6259 489.933 -82.7097 484.855 -82.7097 478.591V398.489C-82.7097 392.225 -87.7934 387.147 -94.0645 387.147H-174.258C-180.529 387.147 -185.613 382.069 -185.613 375.805V295.702C-185.613 289.438 -190.697 284.36 -196.968 284.36H-280M226 687V604.062C226 597.798 220.916 592.72 214.645 592.72H134.452C128.181 592.72 123.097 587.642 123.097 581.378V501.275C123.097 495.011 118.013 489.933 111.742 489.933H31.5484C25.2773 489.933 20.1936 484.855 20.1936 478.591V398.489C20.1936 392.225 25.2773 387.147 31.5484 387.147H111.742C118.013 387.147 123.097 392.225 123.097 398.489V480.009L123.196 480.679C123.958 485.816 128.324 489.652 133.522 489.752L142.968 489.933H214.645C220.916 489.933 226 484.855 226 478.591V398.489C226 392.225 220.916 387.147 214.645 387.147H133.742L131.046 386.967C126.573 386.669 123.097 382.958 123.097 378.479V369.779M123.097 378.64V295.702C123.097 289.438 118.013 284.36 111.742 284.36H31.5484C25.2773 284.36 20.1936 279.282 20.1936 273.018V192.915C20.1936 186.651 15.1098 181.573 8.83872 181.573H-71.3548C-77.6259 181.573 -82.7097 176.495 -82.7097 170.231V90.1286C-82.7097 83.8646 -87.7934 78.7866 -94.0645 78.7866H-174.258C-180.529 78.7866 -185.613 73.7086 -185.613 67.4447V-12.658C-185.613 -18.922 -190.697 -24 -196.968 -24H-280" stroke="url(#paint0_linear_3133_7112)" stroke-width="1.27532"/>
<defs>
<linearGradient id="paint0_linear_3133_7112" x1="226" y1="687" x2="-267.967" y2="75.0492" gradientUnits="userSpaceOnUse">
<stop stop-color="#0D284C"/>
<stop offset="0.9375" stop-color="#29D6E6"/>
</linearGradient>
</defs>
</svg>
